<?xml version="1.0" encoding="UTF-8"?>
<svg width="1440" height="320" viewBox="0 0 1440 320" fill="none" xmlns="http://www.w3.org/2000/svg">
  <path d="M0 320H1440V160C1440 160 1320 200 1200 200C1080 200 1020 120 900 120C780 120 720 200 600 200C480 200 420 120 300 120C180 120 120 200 0 200V320Z" fill="#000000" fill-opacity="0.5"/>
  <path d="M0 320H1440V200C1440 200 1320 240 1200 240C1080 240 1020 160 900 160C780 160 720 240 600 240C480 240 420 160 300 160C180 160 120 240 0 240V320Z" fill="#000000" fill-opacity="0.3"/>
</svg>
